<?xml version="1.0" encoding="UTF-8"?>
<svg version="1.1" xmlns="http://www.w3.org/2000/svg" width="32" height="32">
<path d="M0 0 C10.56 0 21.12 0 32 0 C32 10.56 32 21.12 32 32 C21.44 32 10.88 32 0 32 C0 21.44 0 10.88 0 0 Z " fill="#3D8B8A" transform="translate(0,0)"/>
<path d="M0 0 C10.56 0 21.12 0 32 0 C32 2.64 32 5.28 32 8 C26.72 8 21.44 8 16 8 C16 13.94 16 19.88 16 26 C17.32 26 18.64 26 20 26 C19.67 25.34 19.34 24.68 19 24 C18.34 24 17.68 24 17 24 C17 19.38 17 14.76 17 10 C17.66 10 18.32 10 19 10 C19.33 11.32 19.66 12.64 20 14 C20.86625 13.01 20.86625 13.01 21.75 12 C24 10 24 10 28 10 C28 10.66 28 11.32 28 12 C27.34 12.66 26.68 13.32 26 14 C26 14.99 26 15.98 26 17 C24.68 17.33 23.36 17.66 22 18 C21.67 19.32 21.34 20.64 21 22 C22.98 21.67 24.96 21.34 27 21 C26.67 21.66 26.34 22.32 26 23 C25.01 23.33 24.02 23.66 23 24 C24.98 24.33 26.96 24.66 29 25 C29 25.33 29 25.66 29 26 C25.97265625 26.24414062 25.97265625 26.24414062 22.9453125 26.48828125 C20.60480784 26.87393036 20.60480784 26.87393036 19 30 C16 29 16 29 14 26 C13.77294922 24.00708008 13.77294922 24.00708008 13.8046875 21.76953125 C13.81113281 20.96708984 13.81757813 20.16464844 13.82421875 19.33789062 C13.84097656 18.50451172 13.85773437 17.67113281 13.875 16.8125 C13.88402344 15.96751953 13.89304687 15.12253906 13.90234375 14.25195312 C13.92589297 12.16784757 13.96176353 10.08388783 14 8 C9.545 8.495 9.545 8.495 5 9 C5 9.99 5 10.98 5 12 C7.64 12.33 10.28 12.66 13 13 C13 13.33 13 13.66 13 14 C10.36 14 7.72 14 5 14 C5 15.65 5 17.3 5 19 C6.65 19 8.3 19 10 19 C10 19.33 10 19.66 10 20 C8.35 20 6.7 20 5 20 C5 21.65 5 23.3 5 25 C7.31 25 9.62 25 12 25 C12 25.33 12 25.66 12 26 C9.03 26 6.06 26 3 26 C-0.56945298 16.48145871 0 11.20733446 0 0 Z " fill="#BDE1E0" transform="translate(0,0)"/>
<path d="M0 0 C3.3 0 6.6 0 10 0 C10.16768291 2.93744524 10.33418858 5.87494904 10.5 8.8125 C10.54769531 9.64587891 10.59539063 10.47925781 10.64453125 11.33789062 C10.68964844 12.14033203 10.73476562 12.94277344 10.78125 13.76953125 C10.8440918 14.87711792 10.8440918 14.87711792 10.90820312 16.00708008 C10.98479533 17.66990494 11 19.3354121 11 21 C8.69 20.67 6.38 20.34 4 20 C4.33 21.32 4.66 22.64 5 24 C2.03 24 -0.94 24 -4 24 C-4 18.72 -4 13.44 -4 8 C-1.70366176 11.44450737 -1.45983515 13.93812283 -1 18 C-0.34 17.67 0.32 17.34 1 17 C1 13.37 1 9.74 1 6 C2.65 5.67 4.3 5.34 6 5 C4.35 4.67 2.7 4.34 1 4 C0.67 2.68 0.34 1.36 0 0 Z " fill="#408887" transform="translate(4,8)"/>
<path d="M0 0 C10.56 0 21.12 0 32 0 C32 1.98 32 3.96 32 6 C22.1 6 12.2 6 2 6 C1.67 6.99 1.34 7.98 1 9 C0.67 9 0.34 9 0 9 C0 6.03 0 3.06 0 0 Z " fill="#3D8D8D" transform="translate(0,0)"/>
<path d="M0 0 C0.66 0 1.32 0 2 0 C2 5.94 2 11.88 2 18 C3.32 18 4.64 18 6 18 C5.67 17.34 5.34 16.68 5 16 C4.34 16 3.68 16 3 16 C3 11.38 3 6.76 3 2 C3.66 2 4.32 2 5 2 C5.33 3.32 5.66 4.64 6 6 C6.5775 5.34 7.155 4.68 7.75 4 C10 2 10 2 14 2 C14 2.66 14 3.32 14 4 C13.34 4.66 12.68 5.32 12 6 C12 6.99 12 7.98 12 9 C10.68 9.33 9.36 9.66 8 10 C7.67 11.32 7.34 12.64 7 14 C8.98 13.67 10.96 13.34 13 13 C12.67 13.66 12.34 14.32 12 15 C11.01 15.33 10.02 15.66 9 16 C10.98 16.33 12.96 16.66 15 17 C15 17.33 15 17.66 15 18 C11.97265625 18.24414062 11.97265625 18.24414062 8.9453125 18.48828125 C6.60480784 18.87393036 6.60480784 18.87393036 5 22 C2 21 2 21 0 18 C-0.22705078 16.00708008 -0.22705078 16.00708008 -0.1953125 13.76953125 C-0.18886719 12.96708984 -0.18242187 12.16464844 -0.17578125 11.33789062 C-0.15902344 10.50451172 -0.14226563 9.67113281 -0.125 8.8125 C-0.11597656 7.96751953 -0.10695313 7.12253906 -0.09765625 6.25195312 C-0.07410703 4.16784757 -0.03823647 2.08388783 0 0 Z " fill="#B7E2E2" transform="translate(14,8)"/>
<path d="M0 0 C2.29633824 3.44450737 2.54016485 5.93812283 3 10 C4.03060547 9.83951172 4.03060547 9.83951172 5.08203125 9.67578125 C5.98308594 9.55589844 6.88414063 9.43601562 7.8125 9.3125 C8.70582031 9.18488281 9.59914063 9.05726562 10.51953125 8.92578125 C13 9 13 9 14.82421875 10.48046875 C15.21222656 10.98191406 15.60023437 11.48335937 16 12 C13.33333333 12 10.66666667 12 8 12 C8.33 13.32 8.66 14.64 9 16 C6.03 16 3.06 16 0 16 C0 10.72 0 5.44 0 0 Z " fill="#489494" transform="translate(0,16)"/>
<path d="M0 0 C3.3 0 6.6 0 10 0 C10 2.97 10 5.94 10 9 C9.01 9.495 9.01 9.495 8 10 C8 9.34 8 8.68 8 8 C7.01 8.66 6.02 9.32 5 10 C4.01 10 3.02 10 2 10 C2 8.68 2 7.36 2 6 C3.32 5.67 4.64 5.34 6 5 C4.35 4.67 2.7 4.34 1 4 C0.67 2.68 0.34 1.36 0 0 Z " fill="#3E8786" transform="translate(4,8)"/>
<path d="M0 0 C4.29 0 8.58 0 13 0 C12.67 0.66 12.34 1.32 12 2 C11.05125 2.28875 10.1025 2.5775 9.125 2.875 C5.76006822 4.08637544 4.80055991 4.99906682 3 8 C3 6.02 3 4.04 3 2 C2.34 2 1.68 2 1 2 C1 6.62 1 11.24 1 16 C1.66 16 2.32 16 3 16 C3.33 15.01 3.66 14.02 4 13 C4 14.65 4 16.3 4 18 C2.68 18 1.36 18 0 18 C0 12.06 0 6.12 0 0 Z " fill="#438382" transform="translate(16,8)"/>
<path d="M0 0 C0.66 0 1.32 0 2 0 C2.19532961 1.7699868 2.38098882 3.54104279 2.5625 5.3125 C2.66691406 6.29863281 2.77132813 7.28476562 2.87890625 8.30078125 C3 11 3 11 2 14 C1.34 14 0.68 14 0 14 C0 9.38 0 4.76 0 0 Z " fill="#9ED5D4" transform="translate(17,10)"/>
<path d="M0 0 C0 0.66 0 1.32 0 2 C-0.66 2.66 -1.32 3.32 -2 4 C-2 4.99 -2 5.98 -2 7 C-3.32 7.33 -4.64 7.66 -6 8 C-6.33 6.02 -6.66 4.04 -7 2 C-4 0 -4 0 0 0 Z " fill="#88C2C2" transform="translate(28,10)"/>
<path d="M0 0 C0 0.33 0 0.66 0 1 C-1.65 1 -3.3 1 -5 1 C-5 2.65 -5 4.3 -5 6 C-2.69 6 -0.38 6 2 6 C2 6.33 2 6.66 2 7 C-0.97 7 -3.94 7 -7 7 C-7.33 4.69 -7.66 2.38 -8 0 C-5.13822943 -1.43088528 -3.06624227 -0.59991697 0 0 Z " fill="#D5F7F9" transform="translate(10,19)"/>
<path d="M0 0 C2.31 0 4.62 0 7 0 C7 1.32 7 2.64 7 4 C4.36 3.67 1.72 3.34 -1 3 C-0.67 2.01 -0.34 1.02 0 0 Z " fill="#428F8D" transform="translate(6,9)"/>
<path d="M0 0 C1.32 0.33 2.64 0.66 4 1 C4 2.98 4 4.96 4 7 C1.03 6.67 -1.94 6.34 -5 6 C-5 5.67 -5 5.34 -5 5 C-4.030625 4.87625 -3.06125 4.7525 -2.0625 4.625 C-1.051875 4.41875 -0.04125 4.2125 1 4 C1.33 3.34 1.66 2.68 2 2 C1.34 2 0.68 2 0 2 C0 1.34 0 0.68 0 0 Z " fill="#459695" transform="translate(28,21)"/>
<path d="M0 0 C0.33 1.32 0.66 2.64 1 4 C2.98 3.34 4.96 2.68 7 2 C7.33 3.32 7.66 4.64 8 6 C5.36 5.67 2.72 5.34 0 5 C0 3.35 0 1.7 0 0 Z " fill="#649EA3" transform="translate(5,14)"/>
</svg>
